<?xml version="1.0" encoding="UTF-8" standalone="no"?>
<!DOCTYPE svg PUBLIC "-//W3C//DTD SVG 1.1//EN" "http://www.w3.org/Graphics/SVG/1.1/DTD/svg11.dtd">
<!-- 由 Microsoft Visio, SVG Export 生成 作品框图.svg Page-1 -->
<svg xmlns="http://www.w3.org/2000/svg" xmlns:xlink="http://www.w3.org/1999/xlink" xmlns:ev="http://www.w3.org/2001/xml-events"
		xmlns:v="http://schemas.microsoft.com/visio/2003/SVGExtensions/" width="16.5354in" height="11.6929in"
		viewBox="0 0 1190.55 841.89" xml:space="preserve" color-interpolation-filters="sRGB" class="st16">
	<v:documentProperties v:langID="2052" v:metric="true" v:viewMarkup="false">
		<v:userDefs>
			<v:ud v:nameU="msvSubprocessMaster" v:prompt="" v:val="VT4(Rectangle)"/>
			<v:ud v:nameU="msvNoAutoConnect" v:val="VT0(1):26"/>
		</v:userDefs>
	</v:documentProperties>

	<style type="text/css">
	<![CDATA[
		.st1 {fill:#bdd0e9;stroke:#c7c8c8;stroke-width:0.25}
		.st2 {fill:url(#grad0-6);stroke:#3c63ac;stroke-width:0.75}
		.st3 {fill:#4672c4;stroke:#c7c8c8;stroke-width:0.25}
		.st4 {fill:#feffff;font-family:微软雅黑;font-size:1.99999em}
		.st5 {fill:#feffff;font-family:楷体;font-size:1.99999em}
		.st6 {fill:#feffff;font-family:微软雅黑;font-size:1.5em}
		.st7 {font-size:1em}
		.st8 {fill:#70ad47;stroke:#c7c8c8;stroke-width:0.25}
		.st9 {fill:#ed7d31;stroke:#c7c8c8;stroke-width:0.25}
		.st10 {fill:#3c63ac;stroke:#30518f;stroke-width:0.75}
		.st11 {fill:none;stroke:none;stroke-width:0.25}
		.st12 {fill:#4672c4;font-family:微软雅黑;font-size:1.5em}
		.st13 {fill:#dae2f3;stroke:#3c63ac;stroke-width:0.75}
		.st14 {fill:#3c63ac;font-family:微软雅黑;font-size:1.5em}
		.st15 {fill:#7030a0;font-family:微软雅黑;font-size:1.99999em}
		.st16 {fill:none;fill-rule:evenodd;font-size:12px;overflow:visible;stroke-linecap:square;stroke-miterlimit:3}
	]]>
	</style>

	<defs id="Patterns_And_Gradients">
		<linearGradient id="grad0-6" x1="0" y1="0" x2="1" y2="0" gradientTransform="rotate(60 0.5 0.5)">
			<stop offset="0" stop-color="#e8ebf4" stop-opacity="1"/>
			<stop offset="0.24" stop-color="#f4f5f9" stop-opacity="1"/>
			<stop offset="0.54" stop-color="#feffff" stop-opacity="1"/>
		</linearGradient>
	</defs>
	<g v:mID="0" v:index="1" v:groupContext="foregroundPage">
		<v:userDefs>
			<v:ud v:nameU="msvThemeOrder" v:val="VT0(0):26"/>
		</v:userDefs>
		<title>页-1</title>
		<v:pageProperties v:drawingScale="0.0393701" v:pageScale="0.0393701" v:drawingUnits="24" v:shadowOffsetX="8.50394"
				v:shadowOffsetY="-8.50394"/>
		<g id="shape66-1" v:mID="66" v:groupContext="shape" transform="translate(538.583,-74.3508)">
			<title>矩形.66</title>
			<v:userDefs>
				<v:ud v:nameU="visVersion" v:val="VT0(15):26"/>
				<v:ud v:nameU="visMasterStencil" v:prompt="" v:val="VT4(Basic_M.vssx)"/>
			</v:userDefs>
			<rect x="0" y="468.366" width="317.48" height="373.523" class="st1"/>
		</g>
		<g id="shape57-3" v:mID="57" v:groupContext="shape" transform="translate(198.425,-590.815)">
			<title>矩形.57</title>
			<v:userDefs>
				<v:ud v:nameU="visVersion" v:val="VT0(15):26"/>
				<v:ud v:nameU="visMasterStencil" v:prompt="" v:val="VT4(Basic_M.vssx)"/>
			</v:userDefs>
			<rect x="0" y="634.543" width="659.055" height="207.347" class="st2"/>
		</g>
		<g id="shape58-7" v:mID="58" v:groupContext="shape" transform="translate(197.008,-759.904)">
			<title>矩形.58</title>
			<desc>控制模块</desc>
			<v:userDefs>
				<v:ud v:nameU="visVersion" v:val="VT0(15):26"/>
				<v:ud v:nameU="visMasterStencil" v:prompt="" v:val="VT4(Basic_M.vssx)"/>
			</v:userDefs>
			<v:textBlock v:margins="rect(4,4,4,4)" v:tabSpace="42.5197"/>
			<v:textRect cx="330.378" cy="822.761" width="660.76" height="38.2574"/>
			<rect x="0" y="803.632" width="660.756" height="38.2574" class="st3"/>
			<text x="282.38" y="829.96" class="st4" v:langID="2052"><v:paragraph v:horizAlign="1"/><v:tabList/>控制模块</text>		</g>
		<g id="shape6-10" v:mID="6" v:groupContext="shape" transform="translate(28.0939,-535.438)">
			<title>框架</title>
			<v:userDefs>
				<v:ud v:nameU="visVersion" v:prompt="" v:val="VT0(15):26"/>
				<v:ud v:nameU="visMasterStencil" v:prompt="" v:val="VT4(Basic_M.vssx)"/>
			</v:userDefs>
			<path d="M0 841.89 L131.81 841.89 L131.81 755.89 L0 755.89 L0 841.89 ZM8.5 833.39 L123.31 833.39 L123.31 764.39 L8.5
						 764.39 L8.5 833.39 Z" class="st3"/>
		</g>
		<g id="shape8-12" v:mID="8" v:groupContext="shape" transform="translate(198.425,-75.1181)">
			<title>矩形</title>
			<v:userDefs>
				<v:ud v:nameU="visVersion" v:val="VT0(15):26"/>
				<v:ud v:nameU="visMasterStencil" v:prompt="" v:val="VT4(Basic_M.vssx)"/>
			</v:userDefs>
			<rect x="0" y="468.366" width="317.48" height="373.523" class="st1"/>
		</g>
		<g id="shape9-14" v:mID="9" v:groupContext="shape" transform="translate(301.368,-312.557)">
			<title>矩形.9</title>
			<desc>FIFO</desc>
			<v:userDefs>
				<v:ud v:nameU="visVersion" v:val="VT0(15):26"/>
				<v:ud v:nameU="visMasterStencil" v:prompt="" v:val="VT4(Basic_M.vssx)"/>
			</v:userDefs>
			<v:textBlock v:margins="rect(4,4,4,4)" v:tabSpace="42.5197"/>
			<v:textRect cx="56.6929" cy="799.37" width="113.39" height="85.0394"/>
			<rect x="0" y="756.85" width="113.386" height="85.0394" class="st3"/>
			<text x="32.69" y="806.57" class="st5" v:langID="2052"><v:paragraph v:horizAlign="1"/><v:tabList/>FIFO</text>		</g>
		<g id="shape13-17" v:mID="13" v:groupContext="shape" transform="translate(221.55,-204.393)">
			<title>矩形.13</title>
			<desc>双三次插值 算法</desc>
			<v:userDefs>
				<v:ud v:nameU="visVersion" v:val="VT0(15):26"/>
				<v:ud v:nameU="visMasterStencil" v:prompt="" v:val="VT4(Basic_M.vssx)"/>
			</v:userDefs>
			<v:textBlock v:margins="rect(4,4,4,4)" v:tabSpace="42.5197"/>
			<v:textRect cx="56.6929" cy="799.37" width="113.39" height="85.0394"/>
			<rect x="0" y="756.85" width="113.386" height="85.0394" class="st3"/>
			<text x="11.69" y="793.97" class="st6" v:langID="2052"><v:paragraph v:horizAlign="1"/><v:tabList/>双三次插值<v:newlineChar/><tspan
						x="38.69" dy="1.2em" class="st7">算法</tspan></text>		</g>
		<g id="shape15-21" v:mID="15" v:groupContext="shape" transform="translate(714.331,-303.307)">
			<title>矩形.15</title>
			<desc>DDR3</desc>
			<v:userDefs>
				<v:ud v:nameU="visVersion" v:val="VT0(15):26"/>
				<v:ud v:nameU="visMasterStencil" v:prompt="" v:val="VT4(Basic_M.vssx)"/>
			</v:userDefs>
			<v:textBlock v:margins="rect(4,4,4,4)" v:tabSpace="42.5197"/>
			<v:textRect cx="56.6929" cy="799.37" width="113.39" height="85.0394"/>
			<rect x="0" y="756.85" width="113.386" height="85.0394" class="st8"/>
			<text x="23.54" y="806.57" class="st4" v:langID="2052"><v:paragraph v:horizAlign="1"/><v:tabList/>DDR3  </text>		</g>
		<g id="shape16-24" v:mID="16" v:groupContext="shape" transform="translate(561.26,-303.307)">
			<title>矩形.16</title>
			<desc>Axi4 awarMux</desc>
			<v:userDefs>
				<v:ud v:nameU="visVersion" v:val="VT0(15):26"/>
				<v:ud v:nameU="visMasterStencil" v:prompt="" v:val="VT4(Basic_M.vssx)"/>
			</v:userDefs>
			<v:textBlock v:margins="rect(4,4,4,4)" v:tabSpace="42.5197"/>
			<v:textRect cx="56.6929" cy="799.37" width="113.39" height="85.0394"/>
			<rect x="0" y="756.85" width="113.386" height="85.0394" class="st3"/>
			<text x="31.94" y="792.17" class="st4" v:langID="2052"><v:paragraph v:horizAlign="1"/><v:tabList/>Axi4<v:newlineChar/><tspan
						x="4.17" dy="1.2em" class="st7">awarMux</tspan></text>		</g>
		<g id="shape17-28" v:mID="17" v:groupContext="shape" transform="translate(640.63,-113.386)">
			<title>矩形.17</title>
			<desc>axi4_ctrl</desc>
			<v:userDefs>
				<v:ud v:nameU="visVersion" v:val="VT0(15):26"/>
				<v:ud v:nameU="visMasterStencil" v:prompt="" v:val="VT4(Basic_M.vssx)"/>
			</v:userDefs>
			<v:textBlock v:margins="rect(4,4,4,4)" v:tabSpace="42.5197"/>
			<v:textRect cx="56.6929" cy="799.867" width="113.39" height="84.0448"/>
			<rect x="0" y="757.845" width="113.386" height="84.0448" class="st3"/>
			<text x="10.11" y="807.07" class="st4" v:langID="2052"><v:paragraph v:horizAlign="1"/><v:tabList/>axi4_ctrl</text>		</g>
		<g id="shape5-31" v:mID="5" v:groupContext="shape" transform="translate(198.425,1421.9) rotate(180)">
			<title>普通箭头</title>
			<v:userDefs>
				<v:ud v:nameU="visVersion" v:val="VT0(15):26"/>
				<v:ud v:nameU="ArrowType" v:prompt="" v:val="VT0(2):26"/>
			</v:userDefs>
		</g>
		<g id="shape24-32" v:mID="24" v:groupContext="shape" transform="translate(887.244,-112.391)">
			<title>矩形.24</title>
			<desc>hdmi 驱动</desc>
			<v:userDefs>
				<v:ud v:nameU="visVersion" v:val="VT0(15):26"/>
				<v:ud v:nameU="visMasterStencil" v:prompt="" v:val="VT4(Basic_M.vssx)"/>
			</v:userDefs>
			<v:textBlock v:margins="rect(4,4,4,4)" v:tabSpace="42.5197"/>
			<v:textRect cx="56.6929" cy="799.37" width="113.39" height="85.0394"/>
			<rect x="0" y="756.85" width="113.386" height="85.0394" class="st3"/>
			<text x="27.19" y="792.17" class="st4" v:langID="2052"><v:paragraph v:horizAlign="1"/><v:tabList/>hdmi<v:newlineChar/><tspan
						x="32.69" dy="1.2em" class="st7">驱动</tspan></text>		</g>
		<g id="shape25-36" v:mID="25" v:groupContext="shape" transform="translate(37.3071,-311.811)">
			<title>矩形.25</title>
			<desc>ADV7611 输入子卡</desc>
			<v:userDefs>
				<v:ud v:nameU="visVersion" v:val="VT0(15):26"/>
				<v:ud v:nameU="visMasterStencil" v:prompt="" v:val="VT4(Basic_M.vssx)"/>
			</v:userDefs>
			<v:textBlock v:margins="rect(4,4,4,4)" v:tabSpace="42.5197"/>
			<v:textRect cx="56.6929" cy="799.37" width="113.39" height="85.0394"/>
			<rect x="0" y="756.85" width="113.386" height="85.0394" class="st9"/>
			<text x="16.31" y="793.97" class="st6" v:langID="2052"><v:paragraph v:horizAlign="1"/><v:tabList/>ADV7611<v:newlineChar/><tspan
						x="20.69" dy="1.2em" class="st7">输入子卡</tspan></text>		</g>
		<g id="shape26-40" v:mID="26" v:groupContext="shape" transform="translate(125.762,1046.9) rotate(180)">
			<title>三角形</title>
			<v:userDefs>
				<v:ud v:nameU="visVersion" v:val="VT0(15):26"/>
				<v:ud v:nameU="visMasterStencil" v:prompt="" v:val="VT4(Basic_M.vssx)"/>
			</v:userDefs>
			<path d="M63.52 841.89 L31.76 826.45 L0 841.89 L63.52 841.89 Z" class="st3"/>
		</g>
		<g id="shape29-42" v:mID="29" v:groupContext="shape" transform="translate(305.536,1328.69) rotate(179.716)">
			<title>普通箭头.29</title>
			<v:userDefs>
				<v:ud v:nameU="visVersion" v:val="VT0(15):26"/>
				<v:ud v:nameU="ArrowType" v:prompt="" v:val="VT0(2):26"/>
			</v:userDefs>
			<path d="M0 841.89 L11.34 830.55 L11.34 836.22 L150.68 836.22 L150.68 841.89 L150.68 847.56 L11.34 847.56 L11.34 853.23
						 L0 841.89 Z" class="st10"/>
		</g>
		<g id="shape30-44" v:mID="30" v:groupContext="shape" transform="translate(1043.69,-112.391)">
			<title>矩形.30</title>
			<desc>hdmi ip</desc>
			<v:userDefs>
				<v:ud v:nameU="visVersion" v:val="VT0(15):26"/>
				<v:ud v:nameU="visMasterStencil" v:prompt="" v:val="VT4(Basic_M.vssx)"/>
			</v:userDefs>
			<v:textBlock v:margins="rect(4,4,4,4)" v:tabSpace="42.5197"/>
			<v:textRect cx="56.6929" cy="799.37" width="113.39" height="85.0394"/>
			<rect x="0" y="756.85" width="113.386" height="85.0394" class="st3"/>
			<text x="27.19" y="792.17" class="st4" v:langID="2052"><v:paragraph v:horizAlign="1"/><v:tabList/>hdmi<v:newlineChar/><tspan
						x="45.84" dy="1.2em" class="st7">ip</tspan></text>		</g>
		<g id="shape31-48" v:mID="31" v:groupContext="shape" transform="translate(1034.47,-316.139)">
			<title>框架.31</title>
			<v:userDefs>
				<v:ud v:nameU="visVersion" v:prompt="" v:val="VT0(15):26"/>
				<v:ud v:nameU="visMasterStencil" v:prompt="" v:val="VT4(Basic_M.vssx)"/>
			</v:userDefs>
			<path d="M0 841.89 L131.81 841.89 L131.81 755.89 L0 755.89 L0 841.89 ZM8.5 833.39 L123.31 833.39 L123.31 764.39 L8.5
						 764.39 L8.5 833.39 Z" class="st3"/>
		</g>
		<g id="shape32-50" v:mID="32" v:groupContext="shape" transform="translate(1132.14,1268.26) rotate(180)">
			<title>三角形.32</title>
			<v:userDefs>
				<v:ud v:nameU="visVersion" v:val="VT0(15):26"/>
				<v:ud v:nameU="visMasterStencil" v:prompt="" v:val="VT4(Basic_M.vssx)"/>
			</v:userDefs>
			<path d="M63.52 841.89 L31.76 826.45 L0 841.89 L63.52 841.89 Z" class="st3"/>
		</g>
		<g id="shape35-52" v:mID="35" v:groupContext="shape" transform="translate(1942.27,525.751) rotate(90)">
			<title>普通箭头.35</title>
			<v:userDefs>
				<v:ud v:nameU="visVersion" v:val="VT0(15):26"/>
				<v:ud v:nameU="ArrowType" v:prompt="" v:val="VT0(2):26"/>
			</v:userDefs>
			<path d="M0 841.89 L11.34 830.55 L11.34 836.22 L118.71 836.22 L118.71 841.89 L118.71 847.56 L11.34 847.56 L11.34 853.23
						 L0 841.89 Z" class="st10"/>
		</g>
		<g id="shape36-54" v:mID="36" v:groupContext="shape" transform="translate(1043.69,1528.87) rotate(180)">
			<title>普通箭头.36</title>
			<v:userDefs>
				<v:ud v:nameU="visVersion" v:val="VT0(15):26"/>
				<v:ud v:nameU="ArrowType" v:prompt="" v:val="VT0(2):26"/>
			</v:userDefs>
			<path d="M0 841.89 L11.34 830.55 L11.34 836.22 L43.06 836.22 L43.06 841.89 L43.06 847.56 L11.34 847.56 L11.34 853.23
						 L0 841.89 Z" class="st10"/>
		</g>
		<g id="shape37-56" v:mID="37" v:groupContext="shape" transform="translate(757.158,-155.402) rotate(0.213861)">
			<title>普通双箭头.37</title>
			<v:userDefs>
				<v:ud v:nameU="visVersion" v:val="VT0(15):26"/>
				<v:ud v:nameU="ArrowType" v:prompt="" v:val="VT0(3):26"/>
			</v:userDefs>
			<path d="M0 841.89 L11.34 830.55 L11.34 836.22 L121.89 836.22 L121.89 830.55 L133.23 841.89 L121.89 853.23 L121.89 847.56
						 L11.34 847.56 L11.34 853.23 L0 841.89 Z" class="st10"/>
		</g>
		<g id="shape38-58" v:mID="38" v:groupContext="shape" transform="translate(-747.89,445.039) rotate(-90)">
			<title>普通箭头.38</title>
			<v:userDefs>
				<v:ud v:nameU="visVersion" v:val="VT0(15):26"/>
				<v:ud v:nameU="ArrowType" v:prompt="" v:val="VT0(2):26"/>
			</v:userDefs>
			<path d="M0 841.89 L11.34 830.55 L11.34 836.22 L138.59 836.22 L138.59 841.89 L138.59 847.56 L11.34 847.56 L11.34 853.23
						 L0 841.89 Z" class="st10"/>
		</g>
		<g id="shape39-60" v:mID="39" v:groupContext="shape" transform="translate(18,-568.439)">
			<title>工作表.39</title>
			<desc>TMDS 信号</desc>
			<v:textBlock v:margins="rect(4,4,4,4)" v:tabSpace="42.5197"/>
			<v:textRect cx="76" cy="831.89" width="152.01" height="20"/>
			<rect x="0" y="821.89" width="152" height="20" class="st11"/>
			<text x="29.33" y="837.29" class="st12" v:langID="2052"><v:paragraph v:horizAlign="1"/><v:tabList/>TMDS 信号</text>		</g>
		<g id="shape41-63" v:mID="41" v:groupContext="shape" transform="translate(212.598,-609.449)">
			<title>矩形.41</title>
			<v:userDefs>
				<v:ud v:nameU="visVersion" v:val="VT0(15):26"/>
				<v:ud v:nameU="visMasterStencil" v:prompt="" v:val="VT4(Basic_M.vssx)"/>
			</v:userDefs>
			<rect x="0" y="707.305" width="399.118" height="134.585" class="st1"/>
		</g>
		<g id="shape42-65" v:mID="42" v:groupContext="shape" transform="translate(694.488,-607.452)">
			<title>矩形.42</title>
			<desc>LCD 触控屏</desc>
			<v:userDefs>
				<v:ud v:nameU="visVersion" v:val="VT0(15):26"/>
				<v:ud v:nameU="visMasterStencil" v:prompt="" v:val="VT4(Basic_M.vssx)"/>
			</v:userDefs>
			<v:textBlock v:margins="rect(4,4,4,4)" v:tabSpace="42.5197"/>
			<v:textRect cx="65.9061" cy="792.46" width="131.82" height="98.8592"/>
			<rect x="0" y="743.031" width="131.812" height="98.8592" class="st13"/>
			<text x="18.75" y="797.86" class="st14" v:langID="2052"><v:paragraph v:horizAlign="1"/><v:tabList/>LCD 触控屏</text>		</g>
		<g id="shape44-68" v:mID="44" v:groupContext="shape" transform="translate(218.268,-623.622)">
			<title>矩形.44</title>
			<desc>LVGL 图形库</desc>
			<v:userDefs>
				<v:ud v:nameU="visVersion" v:val="VT0(15):26"/>
				<v:ud v:nameU="visMasterStencil" v:prompt="" v:val="VT4(Basic_M.vssx)"/>
			</v:userDefs>
			<v:textBlock v:margins="rect(4,4,4,4)" v:tabSpace="42.5197"/>
			<v:textRect cx="60.9449" cy="808.631" width="121.89" height="66.5183"/>
			<rect x="0" y="775.371" width="121.89" height="66.5183" class="st3"/>
			<text x="38.93" y="803.23" class="st6" v:langID="2052"><v:paragraph v:horizAlign="1"/><v:tabList/>LVGL<v:newlineChar/><tspan
						x="33.95" dy="1.2em" class="st7">图形库</tspan></text>		</g>
		<g id="shape45-72" v:mID="45" v:groupContext="shape" transform="translate(347.953,-623.622)">
			<title>矩形.45</title>
			<desc>缩放 参数控制</desc>
			<v:userDefs>
				<v:ud v:nameU="visVersion" v:val="VT0(15):26"/>
				<v:ud v:nameU="visMasterStencil" v:prompt="" v:val="VT4(Basic_M.vssx)"/>
			</v:userDefs>
			<v:textBlock v:margins="rect(4,4,4,4)" v:tabSpace="42.5197"/>
			<v:textRect cx="60.9449" cy="808.631" width="121.89" height="66.5183"/>
			<rect x="0" y="775.371" width="121.89" height="66.5183" class="st3"/>
			<text x="42.95" y="803.23" class="st6" v:langID="2052"><v:paragraph v:horizAlign="1"/><v:tabList/>缩放<v:newlineChar/><tspan
						x="24.95" dy="1.2em" class="st7">参数控制</tspan></text>		</g>
		<g id="shape48-76" v:mID="48" v:groupContext="shape" transform="translate(1024.38,-433.543)">
			<title>工作表.48</title>
			<desc>2K 实时显示</desc>
			<v:textBlock v:margins="rect(4,4,4,4)" v:tabSpace="42.5197"/>
			<v:textRect cx="76" cy="831.89" width="152.01" height="20"/>
			<rect x="0" y="821.89" width="152" height="20" class="st11"/>
			<text x="61.35" y="824.69" class="st15" v:langID="2052"><v:paragraph v:horizAlign="1"/><v:tabList/>2K<v:newlineChar/><tspan
						x="28" dy="1.2em" class="st7">实时显示</tspan></text>		</g>
		<g id="shape51-80" v:mID="51" v:groupContext="shape" transform="translate(1024.38,-348.584)">
			<title>工作表.51</title>
			<desc>TMDS 信号</desc>
			<v:textBlock v:margins="rect(4,4,4,4)" v:tabSpace="42.5197"/>
			<v:textRect cx="76" cy="831.89" width="152.01" height="20"/>
			<rect x="0" y="821.89" width="152" height="20" class="st11"/>
			<text x="29.33" y="837.29" class="st12" v:langID="2052"><v:paragraph v:horizAlign="1"/><v:tabList/>TMDS 信号</text>		</g>
		<g id="shape54-83" v:mID="54" v:groupContext="shape" transform="translate(18,-643.96)">
			<title>工作表.54</title>
			<desc>PC端 视频</desc>
			<v:textBlock v:margins="rect(4,4,4,4)" v:tabSpace="42.5197"/>
			<v:textRect cx="76" cy="831.89" width="152.01" height="20"/>
			<rect x="0" y="821.89" width="152" height="20" class="st11"/>
			<text x="21.08" y="839.09" class="st15" v:langID="2052"><v:paragraph v:horizAlign="1"/><v:tabList/>PC端 视频</text>		</g>
		<g id="shape55-86" v:mID="55" v:groupContext="shape" transform="translate(198.425,-407.486)">
			<title>矩形.55</title>
			<desc>算法模块</desc>
			<v:userDefs>
				<v:ud v:nameU="visVersion" v:val="VT0(15):26"/>
				<v:ud v:nameU="visMasterStencil" v:prompt="" v:val="VT4(Basic_M.vssx)"/>
			</v:userDefs>
			<v:textBlock v:margins="rect(4,4,4,4)" v:tabSpace="42.5197"/>
			<v:textRect cx="158.74" cy="821.696" width="317.49" height="40.3885"/>
			<rect x="0" y="801.501" width="317.48" height="40.3885" class="st3"/>
			<text x="110.74" y="828.9" class="st4" v:langID="2052"><v:paragraph v:horizAlign="1"/><v:tabList/>算法模块</text>		</g>
		<g id="shape56-89" v:mID="56" v:groupContext="shape" transform="translate(212.598,-703.646)">
			<title>矩形.56</title>
			<desc>STM32单片机</desc>
			<v:userDefs>
				<v:ud v:nameU="visVersion" v:val="VT0(15):26"/>
				<v:ud v:nameU="visMasterStencil" v:prompt="" v:val="VT4(Basic_M.vssx)"/>
			</v:userDefs>
			<v:textBlock v:margins="rect(4,4,4,4)" v:tabSpace="42.5197"/>
			<v:textRect cx="199.559" cy="821.696" width="399.12" height="40.3885"/>
			<rect x="0" y="801.501" width="399.118" height="40.3885" class="st3"/>
			<text x="123.96" y="828.9" class="st4" v:langID="2052"><v:paragraph v:horizAlign="1"/><v:tabList/>STM32单片机</text>		</g>
		<g id="shape62-92" v:mID="62" v:groupContext="shape" transform="translate(538.583,-407.486)">
			<title>矩形.62</title>
			<desc>DDR3读写模块</desc>
			<v:userDefs>
				<v:ud v:nameU="visVersion" v:val="VT0(15):26"/>
				<v:ud v:nameU="visMasterStencil" v:prompt="" v:val="VT4(Basic_M.vssx)"/>
			</v:userDefs>
			<v:textBlock v:margins="rect(4,4,4,4)" v:tabSpace="42.5197"/>
			<v:textRect cx="158.74" cy="821.696" width="317.49" height="40.3885"/>
			<rect x="0" y="801.501" width="317.48" height="40.3885" class="st3"/>
			<text x="77.59" y="828.9" class="st4" v:langID="2052"><v:paragraph v:horizAlign="1"/><v:tabList/>DDR3读写模块</text>		</g>
		<g id="shape80-95" v:mID="80" v:groupContext="shape" transform="translate(197.858,-480.796)">
			<title>矩形.80</title>
			<desc>SPI通信模块</desc>
			<v:userDefs>
				<v:ud v:nameU="visVersion" v:val="VT0(15):26"/>
				<v:ud v:nameU="visMasterStencil" v:prompt="" v:val="VT4(Basic_M.vssx)"/>
			</v:userDefs>
			<v:textBlock v:margins="rect(4,4,4,4)" v:tabSpace="42.5197"/>
			<v:textRect cx="329.102" cy="799.37" width="658.21" height="85.0394"/>
			<rect x="0" y="756.85" width="658.205" height="85.0394" class="st3"/>
			<text x="263.1" y="806.57" class="st5" v:langID="2052"><v:paragraph v:horizAlign="1"/><v:tabList/>SPI通信模块</text>		</g>
		<g id="shape82-98" v:mID="82" v:groupContext="shape" transform="translate(216.47,1211.82) rotate(180)">
			<title>普通箭头.82</title>
			<v:userDefs>
				<v:ud v:nameU="visVersion" v:val="VT0(15):26"/>
				<v:ud v:nameU="ArrowType" v:prompt="" v:val="VT0(2):26"/>
			</v:userDefs>
		</g>
		<g id="shape85-99" v:mID="85" v:groupContext="shape" transform="translate(-144.326,399.492) rotate(-90.3825)">
			<title>普通箭头.85</title>
			<v:userDefs>
				<v:ud v:nameU="visVersion" v:val="VT0(15):26"/>
				<v:ud v:nameU="ArrowType" v:prompt="" v:val="VT0(2):26"/>
			</v:userDefs>
			<path d="M0 841.89 L11.34 830.55 L11.34 836.22 L33.31 836.22 L33.31 841.89 L33.31 847.56 L11.34 847.56 L11.34 853.23
						 L0 841.89 Z" class="st10"/>
		</g>
		<g id="shape86-101" v:mID="86" v:groupContext="shape" transform="translate(384.095,-204.393)">
			<title>矩形.86</title>
			<desc>双线性插值 算法</desc>
			<v:userDefs>
				<v:ud v:nameU="visVersion" v:val="VT0(15):26"/>
				<v:ud v:nameU="visMasterStencil" v:prompt="" v:val="VT4(Basic_M.vssx)"/>
			</v:userDefs>
			<v:textBlock v:margins="rect(4,4,4,4)" v:tabSpace="42.5197"/>
			<v:textRect cx="56.6929" cy="799.37" width="113.39" height="85.0394"/>
			<rect x="0" y="756.85" width="113.386" height="85.0394" class="st3"/>
			<text x="11.69" y="793.97" class="st6" v:langID="2052"><v:paragraph v:horizAlign="1"/><v:tabList/>双线性插值<v:newlineChar/><tspan
						x="38.69" dy="1.2em" class="st7">算法</tspan></text>		</g>
		<g id="shape88-105" v:mID="88" v:groupContext="shape" transform="translate(477.638,-623.622)">
			<title>矩形.88</title>
			<desc>算法切换 缩放模式切换</desc>
			<v:userDefs>
				<v:ud v:nameU="visVersion" v:val="VT0(15):26"/>
				<v:ud v:nameU="visMasterStencil" v:prompt="" v:val="VT4(Basic_M.vssx)"/>
			</v:userDefs>
			<v:textBlock v:margins="rect(4,4,4,4)" v:tabSpace="42.5197"/>
			<v:textRect cx="60.9449" cy="808.631" width="121.89" height="66.5183"/>
			<rect x="0" y="775.371" width="121.89" height="66.5183" class="st3"/>
			<text x="24.95" y="803.23" class="st6" v:langID="2052"><v:paragraph v:horizAlign="1"/><v:tabList/>算法切换<v:newlineChar/><tspan
						x="6.95" dy="1.2em" class="st7">缩放模式切换</tspan></text>		</g>
		<g id="shape91-109" v:mID="91" v:groupContext="shape" transform="translate(701.14,1026.87) rotate(179.547)">
			<title>普通双箭头.91</title>
			<v:userDefs>
				<v:ud v:nameU="visVersion" v:val="VT0(15):26"/>
				<v:ud v:nameU="ArrowType" v:prompt="" v:val="VT0(3):26"/>
			</v:userDefs>
			<path d="M0 841.89 L11.34 830.55 L11.34 836.22 L72.29 836.22 L72.29 830.55 L83.62 841.89 L72.29 853.23 L72.29 847.56
						 L11.34 847.56 L11.34 853.23 L0 841.89 Z" class="st10"/>
		</g>
		<g id="shape96-111" v:mID="96" v:groupContext="shape" transform="translate(714.331,1337.95) rotate(180)">
			<title>普通双箭头.96</title>
			<v:userDefs>
				<v:ud v:nameU="visVersion" v:val="VT0(15):26"/>
				<v:ud v:nameU="ArrowType" v:prompt="" v:val="VT0(3):26"/>
			</v:userDefs>
			<path d="M0 841.89 L11.34 830.55 L11.34 836.22 L28.35 836.22 L28.35 830.55 L39.69 841.89 L28.35 853.23 L28.35 847.56
						 L11.34 847.56 L11.34 853.23 L0 841.89 Z" class="st10"/>
		</g>
		<g id="shape99-113" v:mID="99" v:groupContext="shape" transform="translate(-315.354,276.055) rotate(-90)">
			<title>普通箭头.99</title>
			<v:userDefs>
				<v:ud v:nameU="visVersion" v:val="VT0(15):26"/>
				<v:ud v:nameU="ArrowType" v:prompt="" v:val="VT0(2):26"/>
			</v:userDefs>
			<path d="M0 841.89 L11.34 830.55 L11.34 836.22 L24.98 836.22 L24.98 841.89 L24.98 847.56 L11.34 847.56 L11.34 853.23
						 L0 841.89 Z" class="st10"/>
		</g>
		<g id="shape100-115" v:mID="100" v:groupContext="shape" transform="translate(-484.706,399.635) rotate(-90.3825)">
			<title>普通箭头.100</title>
			<v:userDefs>
				<v:ud v:nameU="visVersion" v:val="VT0(15):26"/>
				<v:ud v:nameU="ArrowType" v:prompt="" v:val="VT0(2):26"/>
			</v:userDefs>
			<path d="M0 841.89 L11.34 830.55 L11.34 836.22 L33.31 836.22 L33.31 841.89 L33.31 847.56 L11.34 847.56 L11.34 853.23
						 L0 841.89 Z" class="st10"/>
		</g>
		<g id="shape101-117" v:mID="101" v:groupContext="shape" transform="translate(-181.001,824.207) rotate(-102.595)">
			<title>普通双箭头</title>
			<v:userDefs>
				<v:ud v:nameU="visVersion" v:val="VT0(15):26"/>
				<v:ud v:nameU="ArrowType" v:prompt="" v:val="VT0(3):26"/>
			</v:userDefs>
			<path d="M0 841.89 L11.34 830.55 L11.34 836.22 L91.75 836.22 L91.75 830.55 L103.09 841.89 L91.75 853.23 L91.75 847.56
						 L11.34 847.56 L11.34 853.23 L0 841.89 Z" class="st10"/>
		</g>
		<g id="shape102-119" v:mID="102" v:groupContext="shape" transform="translate(-71.0584,465.83) rotate(-77.9643)">
			<title>普通双箭头.102</title>
			<v:userDefs>
				<v:ud v:nameU="visVersion" v:val="VT0(15):26"/>
				<v:ud v:nameU="ArrowType" v:prompt="" v:val="VT0(3):26"/>
			</v:userDefs>
			<path d="M0 841.89 L11.34 830.55 L11.34 836.22 L94.08 836.22 L94.08 830.55 L105.41 841.89 L94.08 853.23 L94.08 847.56
						 L11.34 847.56 L11.34 853.23 L0 841.89 Z" class="st10"/>
		</g>
		<g id="shape103-121" v:mID="103" v:groupContext="shape" transform="translate(222.52,-112.64)">
			<title>矩形.103</title>
			<desc>算法选择</desc>
			<v:userDefs>
				<v:ud v:nameU="visVersion" v:val="VT0(15):26"/>
				<v:ud v:nameU="visMasterStencil" v:prompt="" v:val="VT4(Basic_M.vssx)"/>
			</v:userDefs>
			<v:textBlock v:margins="rect(4,4,4,4)" v:tabSpace="42.5197"/>
			<v:textRect cx="137.48" cy="812.462" width="274.97" height="58.8562"/>
			<rect x="0" y="783.034" width="274.961" height="58.8562" class="st3"/>
			<text x="101.48" y="817.86" class="st6" v:langID="2052"><v:paragraph v:horizAlign="1"/><v:tabList/>算法选择</text>		</g>
		<g id="shape104-124" v:mID="104" v:groupContext="shape" transform="translate(639.213,1542.05) rotate(180)">
			<title>普通箭头.104</title>
			<v:userDefs>
				<v:ud v:nameU="visVersion" v:val="VT0(15):26"/>
				<v:ud v:nameU="ArrowType" v:prompt="" v:val="VT0(2):26"/>
			</v:userDefs>
			<path d="M0 841.89 L11.34 830.55 L11.34 836.22 L139.42 836.22 L139.42 841.89 L139.42 847.56 L11.34 847.56 L11.34 853.23
						 L0 841.89 Z" class="st10"/>
		</g>
		<g id="shape105-126" v:mID="105" v:groupContext="shape" transform="translate(384.095,1436.87) rotate(180)">
			<title>普通双箭头.105</title>
			<v:userDefs>
				<v:ud v:nameU="visVersion" v:val="VT0(15):26"/>
				<v:ud v:nameU="ArrowType" v:prompt="" v:val="VT0(3):26"/>
			</v:userDefs>
			<path d="M0 841.89 L11.34 830.55 L11.34 836.22 L37.82 836.22 L37.82 830.55 L49.16 841.89 L37.82 853.23 L37.82 847.56
						 L11.34 847.56 L11.34 853.23 L0 841.89 Z" class="st10"/>
		</g>
		<g id="shape107-128" v:mID="107" v:groupContext="shape" transform="translate(-483.274,595.658) rotate(-90.5083)">
			<title>普通箭头.107</title>
			<v:userDefs>
				<v:ud v:nameU="visVersion" v:val="VT0(15):26"/>
				<v:ud v:nameU="ArrowType" v:prompt="" v:val="VT0(2):26"/>
			</v:userDefs>
			<path d="M0 841.89 L11.34 830.55 L11.34 836.22 L58.86 836.22 L58.86 841.89 L58.86 847.56 L11.34 847.56 L11.34 853.23
						 L0 841.89 Z" class="st10"/>
		</g>
		<g id="shape108-130" v:mID="108" v:groupContext="shape" transform="translate(-562.66,678.613) rotate(-90.3665)">
			<title>普通箭头.108</title>
			<v:userDefs>
				<v:ud v:nameU="visVersion" v:val="VT0(15):26"/>
				<v:ud v:nameU="ArrowType" v:prompt="" v:val="VT0(2):26"/>
			</v:userDefs>
			<path d="M0 841.89 L11.34 830.55 L11.34 836.22 L34.99 836.22 L34.99 841.89 L34.99 847.56 L11.34 847.56 L11.34 853.23
						 L0 841.89 Z" class="st10"/>
		</g>
		<g id="shape109-132" v:mID="109" v:groupContext="shape" transform="translate(-401.533,678.613) rotate(-90.3665)">
			<title>普通箭头.109</title>
			<v:userDefs>
				<v:ud v:nameU="visVersion" v:val="VT0(15):26"/>
				<v:ud v:nameU="ArrowType" v:prompt="" v:val="VT0(2):26"/>
			</v:userDefs>
			<path d="M0 841.89 L11.34 830.55 L11.34 836.22 L34.99 836.22 L34.99 841.89 L34.99 847.56 L11.34 847.56 L11.34 853.23
						 L0 841.89 Z" class="st10"/>
		</g>
	</g>
</svg>
